<?xml version="1.0" encoding="UTF-8" standalone="no"?>
<svg xmlns:inkscape="http://www.inkscape.org/namespaces/inkscape" xmlns="http://www.w3.org/2000/svg" viewBox="0 0 390 844" width="390" height="844">
  <g id="bg" inkscape:label="bg" inkscape:groupmode="layer">
    <rect id="bg_ground" inkscape:label="bg_ground" x="0" y="0" width="390" height="844" fill="#FAF7EE" />
  </g>
  <g id="content" inkscape:label="content" inkscape:groupmode="layer">
    <rect id="content_card_bg" inkscape:label="content_card_bg" x="16" y="54" width="358" height="650.05" fill="#FFFFFF" stroke="#E0D9C4" stroke-width="1" rx="16" />
    <text id="content_back" inkscape:label="content_back" x="16" y="24" font-family="Inter, 'Segoe UI', system-ui, sans-serif" font-size="14" font-weight="700" fill="#8A8577" text-anchor="start">‹ BACK</text>
    <text id="content_top_title" inkscape:label="content_top_title" x="195" y="24" font-family="Inter, 'Segoe UI', system-ui, sans-serif" font-size="15" font-weight="800" fill="#201F24" text-anchor="middle" letter-spacing="2" style="text-transform:uppercase">EDIT GATES</text>
    <text id="content_card_title" inkscape:label="content_card_title" x="32" y="76" font-family="Inter, 'Segoe UI', system-ui, sans-serif" font-size="16" font-weight="700" fill="#201F24" text-anchor="start">Sector gates — Home Work Dry</text>
    <text id="content_card_subtitle_l1" inkscape:label="content_card_subtitle_l1" x="32" y="102.8" font-family="Inter, 'Segoe UI', system-ui, sans-serif" font-size="12.5" font-weight="400" fill="#8A8577" text-anchor="start">Tap a gate on the map or below to nudge it —</text>
    <text id="content_card_subtitle_l2" inkscape:label="content_card_subtitle_l2" x="32" y="119.05" font-family="Inter, 'Segoe UI', system-ui, sans-serif" font-size="12.5" font-weight="400" fill="#8A8577" text-anchor="start">start and finish too. Saving moved gates</text>
    <text id="content_card_subtitle_l3" inkscape:label="content_card_subtitle_l3" x="32" y="135.3" font-family="Inter, 'Segoe UI', system-ui, sans-serif" font-size="12.5" font-weight="400" fill="#8A8577" text-anchor="start">resets this way's history: past results are</text>
    <text id="content_card_subtitle_l4" inkscape:label="content_card_subtitle_l4" x="32" y="151.55" font-family="Inter, 'Segoe UI', system-ui, sans-serif" font-size="12.5" font-weight="400" fill="#8A8577" text-anchor="start">re-timed from their recordings against the new</text>
    <text id="content_card_subtitle_l5" inkscape:label="content_card_subtitle_l5" x="32" y="167.8" font-family="Inter, 'Segoe UI', system-ui, sans-serif" font-size="12.5" font-weight="400" fill="#8A8577" text-anchor="start">gates, old times and ranks do not survive.</text>
    <g id="content_map" inkscape:label="content_map">
      <rect id="content_map_ground" inkscape:label="content_map_ground" x="32" y="196.05" width="326" height="280" fill="#FFFFFF" stroke="#E0D9C4" stroke-width="1" rx="16" />
      <line id="content_map_street_1" inkscape:label="content_map_street_1" x1="90.68" y1="202.05" x2="123.28" y2="470.05" stroke="#E0D9C4" stroke-width="2" stroke-linecap="round" />
      <line id="content_map_street_2" inkscape:label="content_map_street_2" x1="195" y1="202.05" x2="227.6" y2="470.05" stroke="#E0D9C4" stroke-width="2" stroke-linecap="round" />
      <line id="content_map_street_3" inkscape:label="content_map_street_3" x1="299.32" y1="202.05" x2="331.92" y2="470.05" stroke="#E0D9C4" stroke-width="2" stroke-linecap="round" />
      <path id="content_map_route_line_casing" inkscape:label="content_map_route_line_casing" d="M48.48 462.85 L49.55 462.76 L50.32 463.51 L52.45 464.55 L55.48 466.05 L57.14 465.58 L59.46 464.64 L61.77 462.95 L63.97 460.88 L66.22 458.91 L68.48 456.84 L70.79 454.86 L73.05 452.8 L75.48 452.33 L75.89 450.35 L76.19 447.63 L76.73 446.31 L78.33 444.24 L80.29 441.89 L82.07 439.73 L83.97 437.38 L85.09 434.84 L86.04 432.12 L87.59 429.48 L89.78 427.13 L91.8 424.97 L93.76 422.62 L95.78 420.46 L97.91 418.3 L100.05 416.23 L102.18 413.97 L104.32 411.72 L106.46 409.56 L109.31 408.9 L112.39 408.71 L115.48 408.15 L118.56 407.77 L120.23 405.33 L121.77 402.51 L123.55 399.97 L125.51 397.53 L127.47 395.18 L129.54 392.73 L131.5 390.29 L132.98 387.56 L134.94 385.12 L137.08 382.67 L139.04 380.23 L140.88 377.79 L142.72 375.15 L144.38 372.43 L145.98 369.8 L147.52 367.07 L148.65 364.16 L150.14 361.34 L151.38 358.61 L152.69 355.7 L154.05 352.88 L155.42 349.96 L156.66 347.33 L158.56 344.98 L161.05 343.19 L163.55 341.22 L166.04 339.25 L168.47 337.27 L170.91 335.2 L173.4 333.14 L175.89 331.07 L178.38 329 L180.82 326.93 L183.25 324.86 L185.74 322.89 L188.18 320.92 L191.2 320.45 L194.05 321.86 L196.9 323.08 L199.98 324.3 L202.83 325.43 L205.68 326.56 L208.59 327.68 L211.2 327.59 L212.21 325.24 L212.57 323.83 L214.11 318.75 L211.44 317.53 L208.59 316.31 L205.68 315.28 L202.89 314.05 L200.04 313.3 L197.61 314.05 L195.59 313.49 L192.92 312.36 L190.25 311.61 L187.88 310.2 L185.68 308.13 L185.5 305.12 L186.22 302.12 L188.29 299.77 L190.61 297.6 L192.74 295.63 L195.53 293.37 L198.03 291.49 L200.52 289.52 L203.19 287.45 L205.68 285.29 L207.88 283.41 L209.9 281.25 L212.03 278.9 L214.23 276.64 L216.3 274.39 L218.44 272.04 L220.58 269.78 L222.6 267.53 L224.73 265.27 L226.75 263.2 L228.89 260.85 L230.84 258.78 L232.98 256.53 L234.82 254.65 L237.73 253.05 L240.93 253.24 L244.26 253.61 L246.69 254.93 L249.42 253.8 L252.33 252.39 L255.29 251.08 L258.2 249.76 L261.23 248.35 L264.26 247.03 L267.46 246.09 L270.61 245.44 L273.81 244.78 L276.66 243.56 L279.15 241.77 L281.7 239.89 L284.14 238.01 L286.69 236.13 L289.12 234.25 L291.61 232.46 L294.17 230.58 L296.6 228.7 L299.15 226.92 L301.52 225.13 L302.59 224.57 L303.6 225.7 L304.25 225.79 L305.68 224.76 L307.87 222.88 L310.25 220.71 L312.56 218.74 L314.94 216.58 L317.43 214.51 L319.86 212.91 L322.41 211.5 L325.26 210 L328.23 209.06 L330.66 208.31 L332.8 207.65 L335.11 206.05 L337.55 207.27 L339.15 209.53 L340.04 211.97 L341.52 211.78" fill="none" stroke="#14120C" stroke-width="6" stroke-linecap="round" stroke-linejoin="round" />
      <path id="content_map_route_line" inkscape:label="content_map_route_line" d="M48.48 462.85 L49.55 462.76 L50.32 463.51 L52.45 464.55 L55.48 466.05 L57.14 465.58 L59.46 464.64 L61.77 462.95 L63.97 460.88 L66.22 458.91 L68.48 456.84 L70.79 454.86 L73.05 452.8 L75.48 452.33 L75.89 450.35 L76.19 447.63 L76.73 446.31 L78.33 444.24 L80.29 441.89 L82.07 439.73 L83.97 437.38 L85.09 434.84 L86.04 432.12 L87.59 429.48 L89.78 427.13 L91.8 424.97 L93.76 422.62 L95.78 420.46 L97.91 418.3 L100.05 416.23 L102.18 413.97 L104.32 411.72 L106.46 409.56 L109.31 408.9 L112.39 408.71 L115.48 408.15 L118.56 407.77 L120.23 405.33 L121.77 402.51 L123.55 399.97 L125.51 397.53 L127.47 395.18 L129.54 392.73 L131.5 390.29 L132.98 387.56 L134.94 385.12 L137.08 382.67 L139.04 380.23 L140.88 377.79 L142.72 375.15 L144.38 372.43 L145.98 369.8 L147.52 367.07 L148.65 364.16 L150.14 361.34 L151.38 358.61 L152.69 355.7 L154.05 352.88 L155.42 349.96 L156.66 347.33 L158.56 344.98 L161.05 343.19 L163.55 341.22 L166.04 339.25 L168.47 337.27 L170.91 335.2 L173.4 333.14 L175.89 331.07 L178.38 329 L180.82 326.93 L183.25 324.86 L185.74 322.89 L188.18 320.92 L191.2 320.45 L194.05 321.86 L196.9 323.08 L199.98 324.3 L202.83 325.43 L205.68 326.56 L208.59 327.68 L211.2 327.59 L212.21 325.24 L212.57 323.83 L214.11 318.75 L211.44 317.53 L208.59 316.31 L205.68 315.28 L202.89 314.05 L200.04 313.3 L197.61 314.05 L195.59 313.49 L192.92 312.36 L190.25 311.61 L187.88 310.2 L185.68 308.13 L185.5 305.12 L186.22 302.12 L188.29 299.77 L190.61 297.6 L192.74 295.63 L195.53 293.37 L198.03 291.49 L200.52 289.52 L203.19 287.45 L205.68 285.29 L207.88 283.41 L209.9 281.25 L212.03 278.9 L214.23 276.64 L216.3 274.39 L218.44 272.04 L220.58 269.78 L222.6 267.53 L224.73 265.27 L226.75 263.2 L228.89 260.85 L230.84 258.78 L232.98 256.53 L234.82 254.65 L237.73 253.05 L240.93 253.24 L244.26 253.61 L246.69 254.93 L249.42 253.8 L252.33 252.39 L255.29 251.08 L258.2 249.76 L261.23 248.35 L264.26 247.03 L267.46 246.09 L270.61 245.44 L273.81 244.78 L276.66 243.56 L279.15 241.77 L281.7 239.89 L284.14 238.01 L286.69 236.13 L289.12 234.25 L291.61 232.46 L294.17 230.58 L296.6 228.7 L299.15 226.92 L301.52 225.13 L302.59 224.57 L303.6 225.7 L304.25 225.79 L305.68 224.76 L307.87 222.88 L310.25 220.71 L312.56 218.74 L314.94 216.58 L317.43 214.51 L319.86 212.91 L322.41 211.5 L325.26 210 L328.23 209.06 L330.66 208.31 L332.8 207.65 L335.11 206.05 L337.55 207.27 L339.15 209.53 L340.04 211.97 L341.52 211.78" fill="none" stroke="#F5C542" stroke-width="4" stroke-linecap="round" stroke-linejoin="round" />
      <line id="content_map_gate_tick_1_casing" inkscape:label="content_map_gate_tick_1_casing" x1="50.67" y1="456.73" x2="46.29" y2="468.97" stroke="#14120C" stroke-width="5" stroke-linecap="round" />
      <line id="content_map_gate_tick_1" inkscape:label="content_map_gate_tick_1" x1="50.67" y1="456.73" x2="46.29" y2="468.97" stroke="#F5C542" stroke-width="2" stroke-linecap="round" opacity="0.6" />
      <line id="content_map_gate_tick_2_casing" inkscape:label="content_map_gate_tick_2_casing" x1="57.92" y1="457.71" x2="65.62" y2="468.19" stroke="#14120C" stroke-width="5" stroke-linecap="round" />
      <line id="content_map_gate_tick_2" inkscape:label="content_map_gate_tick_2" x1="57.92" y1="457.71" x2="65.62" y2="468.19" stroke="#F5C542" stroke-width="2" stroke-linecap="round" opacity="0.6" />
      <line id="content_map_gate_tick_3_casing" inkscape:label="content_map_gate_tick_3_casing" x1="120.42" y1="393.48" x2="130.59" y2="401.57" stroke="#14120C" stroke-width="5" stroke-linecap="round" />
      <line id="content_map_gate_tick_3" inkscape:label="content_map_gate_tick_3" x1="120.42" y1="393.48" x2="130.59" y2="401.57" stroke="#F5C542" stroke-width="2" stroke-linecap="round" opacity="0.6" />
      <line id="content_map_gate_tick_4_casing" inkscape:label="content_map_gate_tick_4_casing" x1="202.42" y1="318.27" x2="197.55" y2="330.33" stroke="#14120C" stroke-width="5" stroke-linecap="round" />
      <line id="content_map_gate_tick_4" inkscape:label="content_map_gate_tick_4" x1="202.42" y1="318.27" x2="197.55" y2="330.33" stroke="#F5C542" stroke-width="2" stroke-linecap="round" opacity="0.6" />
      <line id="content_map_gate_tick_5_casing" inkscape:label="content_map_gate_tick_5_casing" x1="241.09" y1="246.74" x2="240.78" y2="259.74" stroke="#14120C" stroke-width="5" stroke-linecap="round" />
      <line id="content_map_gate_tick_5" inkscape:label="content_map_gate_tick_5" x1="241.09" y1="246.74" x2="240.78" y2="259.74" stroke="#F5C542" stroke-width="2" stroke-linecap="round" opacity="0.6" />
      <rect id="content_map_placeholder_note" inkscape:label="content_map_placeholder_note" x="32" y="196.05" width="4" height="4" fill="none" />
    </g>
    <line id="content_map_selected_gate" inkscape:label="content_map_selected_gate" x1="120.42" y1="393.48" x2="130.59" y2="401.57" stroke="#2F7DE1" stroke-width="5" stroke-linecap="round" />
    <g id="content_chip_1" inkscape:label="content_chip_1">
      <rect id="content_chip_1_bg" inkscape:label="content_chip_1_bg" x="32" y="492.05" width="60.4" height="32" fill="none" stroke="#E0D9C4" stroke-width="1" rx="9" />
      <text id="content_chip_1_label" inkscape:label="content_chip_1_label" x="62.2" y="512.05" font-family="Inter, 'Segoe UI', system-ui, sans-serif" font-size="11" font-weight="700" fill="#201F24" text-anchor="middle" letter-spacing="0.5">START</text>
    </g>
    <g id="content_chip_2" inkscape:label="content_chip_2">
      <rect id="content_chip_2_bg" inkscape:label="content_chip_2_bg" x="98.4" y="492.05" width="60.4" height="32" fill="none" stroke="#E0D9C4" stroke-width="1" rx="9" />
      <text id="content_chip_2_label" inkscape:label="content_chip_2_label" x="128.6" y="512.05" font-family="Inter, 'Segoe UI', system-ui, sans-serif" font-size="11" font-weight="700" fill="#201F24" text-anchor="middle" letter-spacing="0.5">G1</text>
    </g>
    <g id="content_chip_3" inkscape:label="content_chip_3">
      <rect id="content_chip_3_bg" inkscape:label="content_chip_3_bg" x="164.8" y="492.05" width="60.4" height="32" fill="#F5C542" stroke="#E0D9C4" stroke-width="1" rx="9" />
      <text id="content_chip_3_label" inkscape:label="content_chip_3_label" x="195" y="512.05" font-family="Inter, 'Segoe UI', system-ui, sans-serif" font-size="11" font-weight="700" fill="#17171b" text-anchor="middle" letter-spacing="0.5">G2</text>
    </g>
    <g id="content_chip_4" inkscape:label="content_chip_4">
      <rect id="content_chip_4_bg" inkscape:label="content_chip_4_bg" x="231.2" y="492.05" width="60.4" height="32" fill="none" stroke="#E0D9C4" stroke-width="1" rx="9" />
      <text id="content_chip_4_label" inkscape:label="content_chip_4_label" x="261.4" y="512.05" font-family="Inter, 'Segoe UI', system-ui, sans-serif" font-size="11" font-weight="700" fill="#201F24" text-anchor="middle" letter-spacing="0.5">G3</text>
    </g>
    <g id="content_chip_5" inkscape:label="content_chip_5">
      <rect id="content_chip_5_bg" inkscape:label="content_chip_5_bg" x="297.6" y="492.05" width="60.4" height="32" fill="none" stroke="#E0D9C4" stroke-width="1" rx="9" />
      <text id="content_chip_5_label" inkscape:label="content_chip_5_label" x="327.8" y="512.05" font-family="Inter, 'Segoe UI', system-ui, sans-serif" font-size="11" font-weight="700" fill="#201F24" text-anchor="middle" letter-spacing="0.5">FINISH</text>
    </g>
    <text id="content_readout" inkscape:label="content_readout" x="195" y="540.05" font-family="Inter, 'Segoe UI', system-ui, sans-serif" font-size="16" font-weight="700" fill="#201F24" text-anchor="middle" style="font-variant-numeric:tabular-nums">G2 · 2 718 m · 48.2 %</text>
    <g id="content_pad_1" inkscape:label="content_pad_1">
      <rect id="content_pad_1_bg" inkscape:label="content_pad_1_bg" x="32" y="558.05" width="96.25" height="40" fill="none" stroke="#E0D9C4" stroke-width="1" rx="9" />
      <text id="content_pad_1_label" inkscape:label="content_pad_1_label" x="80.12" y="584.05" font-family="Inter, 'Segoe UI', system-ui, sans-serif" font-size="17" font-weight="800" fill="#201F24" text-anchor="middle">−1%</text>
    </g>
    <g id="content_pad_2" inkscape:label="content_pad_2">
      <rect id="content_pad_2_bg" inkscape:label="content_pad_2_bg" x="134.25" y="558.05" width="57.75" height="32" fill="none" stroke="#E0D9C4" stroke-width="1" rx="9" />
      <text id="content_pad_2_label" inkscape:label="content_pad_2_label" x="163.12" y="579.05" font-family="Inter, 'Segoe UI', system-ui, sans-serif" font-size="13" font-weight="700" fill="#201F24" text-anchor="middle">−0.1%</text>
    </g>
    <g id="content_pad_3" inkscape:label="content_pad_3">
      <rect id="content_pad_3_bg" inkscape:label="content_pad_3_bg" x="198" y="558.05" width="57.75" height="32" fill="none" stroke="#E0D9C4" stroke-width="1" rx="9" />
      <text id="content_pad_3_label" inkscape:label="content_pad_3_label" x="226.88" y="579.05" font-family="Inter, 'Segoe UI', system-ui, sans-serif" font-size="13" font-weight="700" fill="#201F24" text-anchor="middle">+0.1%</text>
    </g>
    <g id="content_pad_4" inkscape:label="content_pad_4">
      <rect id="content_pad_4_bg" inkscape:label="content_pad_4_bg" x="261.75" y="558.05" width="96.25" height="40" fill="none" stroke="#E0D9C4" stroke-width="1" rx="9" />
      <text id="content_pad_4_label" inkscape:label="content_pad_4_label" x="309.88" y="584.05" font-family="Inter, 'Segoe UI', system-ui, sans-serif" font-size="17" font-weight="800" fill="#201F24" text-anchor="middle">+1%</text>
    </g>
    <g id="content_save_btn" inkscape:label="content_save_btn">
      <rect id="content_save_btn_bg" inkscape:label="content_save_btn_bg" x="32" y="616.05" width="326" height="44" fill="#F5C542" rx="10" />
      <text id="content_save_btn_label" inkscape:label="content_save_btn_label" x="195" y="644.05" font-family="Inter, 'Segoe UI', system-ui, sans-serif" font-size="15" font-weight="700" fill="#17171b" text-anchor="middle" letter-spacing="1">SAVE GATES</text>
    </g>
    <text id="content_discard_label" inkscape:label="content_discard_label" x="195" y="672.05" font-family="Inter, 'Segoe UI', system-ui, sans-serif" font-size="13" font-weight="400" fill="#8A8577" text-anchor="middle">discard nudges — keep the current gates</text>
  </g>
</svg>
